<svg xmlns="http://www.w3.org/2000/svg" viewBox="0 0 238.44 46.84"><defs><style>.cls-1{fill:#656565;}.cls-2{fill:#f28e37;}</style></defs><title>headersvg</title><g id="Camada_2" data-name="Camada 2"><g id="Camada_1-2" data-name="Camada 1"><path class="cls-1" d="M62.06,30.4H57.18L45.21,11h-.13l.08,1.08c.16,2.07.24,4,.24,5.66V30.4H41.78V6.06h4.83L58.55,25.35h.1c0-.25-.07-1.18-.13-2.79s-.1-2.85-.1-3.75V6.06h3.64Z"/><path class="cls-1" d="M83.59,30.4l-2.43-6.76H71.85L69.47,30.4H65.28L74.38,6h4.33L87.82,30.4ZM80.11,20.21l-2.28-6.63q-.26-.66-.69-2.1c-.3-1-.5-1.65-.61-2.09a37.09,37.09,0,0,1-1.32,4.47L73,20.21Z"/><path class="cls-1" d="M104.9,6.06H109L100.5,30.4H96.31L87.82,6.06h4.09L97,21.19c.27.72.55,1.65.85,2.79s.49,2,.58,2.54c.15-.85.37-1.82.67-2.93s.54-1.93.73-2.47Z"/><path class="cls-1" d="M127.34,30.4l-2.43-6.76h-9.3l-2.39,6.76H109L118.14,6h4.32l9.11,24.44Zm-3.48-10.19-2.28-6.63q-.24-.66-.69-2.1c-.29-1-.5-1.65-.61-2.09A36.91,36.91,0,0,1,119,13.86l-2.2,6.35Z"/><path class="cls-1" d="M134.79,30.4V6.06h4V27h10.31V30.4Z"/><path class="cls-2" d="M169.38,13.41a7.09,7.09,0,0,1-2.5,5.85q-2.49,2-7.1,2h-2.54V30.4h-4V6.06h7c3,0,5.32.62,6.84,1.86A6.69,6.69,0,0,1,169.38,13.41Zm-12.14,4.53h2.12a7.56,7.56,0,0,0,4.49-1.06,3.87,3.87,0,0,0,1.44-3.33A3.77,3.77,0,0,0,164,10.42a6.29,6.29,0,0,0-4-1h-2.77Z"/><path class="cls-2" d="M195.85,18.19q0,6-3,9.24t-8.41,3.3q-5.52,0-8.47-3.27t-3-9.3q0-6,3-9.26t8.48-3.23c3.62,0,6.41,1.1,8.39,3.28S195.85,14.22,195.85,18.19Zm-18.58,0q0,4.5,1.82,6.82a7.4,7.4,0,0,0,10.73,0q1.8-2.31,1.8-6.85c0-3-.59-5.25-1.78-6.79a6.35,6.35,0,0,0-5.34-2.31,6.45,6.45,0,0,0-5.4,2.31C177.88,12.94,177.27,15.21,177.27,18.19Z"/><path class="cls-2" d="M205.06,20.67V30.4h-4V6.06H208c3.14,0,5.46.58,7,1.76a6.34,6.34,0,0,1,2.27,5.33q0,4.55-4.73,6.47l6.88,10.78h-4.53L209,20.67Zm0-3.29h2.76a6.28,6.28,0,0,0,4-1,3.7,3.7,0,0,0,1.25-3.06,3.29,3.29,0,0,0-1.35-3,7.38,7.38,0,0,0-4.06-.9h-2.63Z"/><path class="cls-2" d="M231.28,30.4h-4V9.47h-7.16V6.06h18.3V9.47h-7.16Z"/><path class="cls-1" d="M113.25,41.82a2,2,0,0,1-.79,1.71,3.5,3.5,0,0,1-2.17.62,5.47,5.47,0,0,1-2.27-.38v-.94a6,6,0,0,0,1.11.35,6.11,6.11,0,0,0,1.2.12,2.35,2.35,0,0,0,1.45-.37,1.18,1.18,0,0,0,.49-1,1.29,1.29,0,0,0-.17-.71,1.75,1.75,0,0,0-.58-.51,8.7,8.7,0,0,0-1.24-.53,3.89,3.89,0,0,1-1.66-1,2.2,2.2,0,0,1-.5-1.49,1.83,1.83,0,0,1,.73-1.53,3,3,0,0,1,1.91-.57,5.5,5.5,0,0,1,2.28.46l-.3.84a5.12,5.12,0,0,0-2-.43,1.9,1.9,0,0,0-1.2.33,1.08,1.08,0,0,0-.44.91,1.46,1.46,0,0,0,.16.71,1.48,1.48,0,0,0,.54.51,7.26,7.26,0,0,0,1.16.51,4.56,4.56,0,0,1,1.8,1A2,2,0,0,1,113.25,41.82Z"/><path class="cls-1" d="M117.45,44.15a2.86,2.86,0,0,1-2.18-.84,3.26,3.26,0,0,1-.8-2.34,3.59,3.59,0,0,1,.74-2.4,2.46,2.46,0,0,1,2-.89,2.37,2.37,0,0,1,1.86.77,3,3,0,0,1,.68,2v.6h-4.29a2.42,2.42,0,0,0,.55,1.66,1.92,1.92,0,0,0,1.48.57,5.09,5.09,0,0,0,2-.42v.84a5.31,5.31,0,0,1-1,.32A5.59,5.59,0,0,1,117.45,44.15Zm-.26-5.68A1.57,1.57,0,0,0,116,39a2.3,2.3,0,0,0-.52,1.36h3.26a2.05,2.05,0,0,0-.4-1.37A1.38,1.38,0,0,0,117.19,38.47Z"/><path class="cls-1" d="M126.46,37.8v.59l-1.15.14a2.11,2.11,0,0,1,.41,1.25,1.83,1.83,0,0,1-.63,1.46,2.55,2.55,0,0,1-1.72.55,2.78,2.78,0,0,1-.52,0,.92.92,0,0,0-.61.8.41.41,0,0,0,.21.38,1.57,1.57,0,0,0,.73.12h1.1a2.52,2.52,0,0,1,1.56.43,1.5,1.5,0,0,1,.54,1.24,1.78,1.78,0,0,1-.83,1.58,4.46,4.46,0,0,1-2.43.55,3.32,3.32,0,0,1-1.88-.46,1.48,1.48,0,0,1-.67-1.29,1.46,1.46,0,0,1,.37-1,1.76,1.76,0,0,1,1-.56,1.09,1.09,0,0,1-.4-.34.88.88,0,0,1-.16-.53,1,1,0,0,1,.18-.6,1.84,1.84,0,0,1,.58-.49,1.68,1.68,0,0,1-.79-.68,2.22,2.22,0,0,1,.31-2.67,2.51,2.51,0,0,1,1.74-.56,3,3,0,0,1,.88.12Zm-5,7.28a.84.84,0,0,0,.42.77,2.32,2.32,0,0,0,1.23.26,3.49,3.49,0,0,0,1.76-.35,1.1,1.1,0,0,0,.57-1,.75.75,0,0,0-.31-.7,2.44,2.44,0,0,0-1.18-.2h-1.13a1.54,1.54,0,0,0-1,.31A1.1,1.1,0,0,0,121.49,45.08Zm.51-5.29a1.25,1.25,0,0,0,.37,1,1.44,1.44,0,0,0,1,.34,1.2,1.2,0,0,0,1.38-1.34,1.24,1.24,0,0,0-1.4-1.41,1.38,1.38,0,0,0-1,.36A1.43,1.43,0,0,0,122,39.79Z"/><path class="cls-1" d="M128.63,37.8v4A1.64,1.64,0,0,0,129,43a1.4,1.4,0,0,0,1.08.38,1.79,1.79,0,0,0,1.44-.54,2.7,2.7,0,0,0,.45-1.75V37.8h.94V44h-.78L132,43.2h0a1.9,1.9,0,0,1-.81.7,2.62,2.62,0,0,1-1.18.25,2.39,2.39,0,0,1-1.7-.54,2.3,2.3,0,0,1-.57-1.73V37.8Z"/><path class="cls-1" d="M137.74,37.68a3.42,3.42,0,0,1,.75.07l-.13.88a3.11,3.11,0,0,0-.68-.09,1.67,1.67,0,0,0-1.3.62,2.24,2.24,0,0,0-.54,1.53V44h-.94V37.8h.78l.11,1.15h0a2.76,2.76,0,0,1,.84-.94A1.85,1.85,0,0,1,137.74,37.68Z"/><path class="cls-1" d="M143.49,44l-.18-.89h-.05a2.62,2.62,0,0,1-.93.79,2.83,2.83,0,0,1-1.16.21,2.06,2.06,0,0,1-1.45-.48,1.75,1.75,0,0,1-.53-1.36c0-1.26,1-1.92,3-2l1.06,0v-.39a1.61,1.61,0,0,0-.31-1.09,1.31,1.31,0,0,0-1-.35,4.14,4.14,0,0,0-1.77.48l-.29-.72a4.08,4.08,0,0,1,1-.39,4.16,4.16,0,0,1,1.1-.15,2.39,2.39,0,0,1,1.66.5,2.1,2.1,0,0,1,.53,1.59V44Zm-2.13-.67a1.94,1.94,0,0,0,1.39-.48,1.84,1.84,0,0,0,.5-1.36V41l-.95,0a3.3,3.3,0,0,0-1.62.35,1.05,1.05,0,0,0-.5,1,1,1,0,0,0,.31.78A1.29,1.29,0,0,0,141.36,43.37Z"/><path class="cls-1" d="M150.41,44V40a1.59,1.59,0,0,0-.35-1.14,1.4,1.4,0,0,0-1.08-.38,1.81,1.81,0,0,0-1.44.53,2.72,2.72,0,0,0-.45,1.75V44h-1V37.8h.77l.15.85h.05a1.81,1.81,0,0,1,.81-.71,2.64,2.64,0,0,1,1.17-.26,2.35,2.35,0,0,1,1.7.55,2.3,2.3,0,0,1,.57,1.73V44Z"/><path class="cls-1" d="M155.79,44.15a2.7,2.7,0,0,1-2.1-.83A3.48,3.48,0,0,1,153,41a3.54,3.54,0,0,1,.75-2.42,2.73,2.73,0,0,1,2.15-.86,3.94,3.94,0,0,1,.9.1,2.68,2.68,0,0,1,.71.23l-.29.8a6,6,0,0,0-.68-.21,3.46,3.46,0,0,0-.66-.08c-1.27,0-1.9.81-1.9,2.42a2.89,2.89,0,0,0,.46,1.77,1.62,1.62,0,0,0,1.38.61,4.28,4.28,0,0,0,1.6-.33v.83A3.39,3.39,0,0,1,155.79,44.15Zm.84,1.53a1,1,0,0,1-.43.85,2.19,2.19,0,0,1-1.29.31,2.38,2.38,0,0,1-.55-.06v-.6a3.42,3.42,0,0,0,.59,0,1.5,1.5,0,0,0,.68-.12.41.41,0,0,0,.23-.42.45.45,0,0,0-.22-.39,2.21,2.21,0,0,0-.85-.25l.51-1h.62l-.31.65Q156.63,44.92,156.63,45.68Z"/><path class="cls-1" d="M162.68,44l-.18-.89h-.05a2.62,2.62,0,0,1-.93.79,2.8,2.8,0,0,1-1.16.21,2.06,2.06,0,0,1-1.45-.48,1.75,1.75,0,0,1-.53-1.36c0-1.26,1-1.92,3-2l1.06,0v-.39a1.61,1.61,0,0,0-.31-1.09,1.31,1.31,0,0,0-1-.35,4.14,4.14,0,0,0-1.77.48l-.29-.72a4.72,4.72,0,0,1,2.11-.54,2.39,2.39,0,0,1,1.66.5,2.06,2.06,0,0,1,.53,1.59V44Zm-2.13-.67a1.94,1.94,0,0,0,1.39-.48,1.84,1.84,0,0,0,.5-1.36V41l-.95,0a3.3,3.3,0,0,0-1.62.35,1.05,1.05,0,0,0-.5,1,1,1,0,0,0,.31.78A1.29,1.29,0,0,0,160.55,43.37Z"/><path class="cls-1" d="M171,44.15a2.89,2.89,0,0,1-2.19-.84A3.3,3.3,0,0,1,168,41a3.59,3.59,0,0,1,.75-2.4,2.46,2.46,0,0,1,2-.89,2.38,2.38,0,0,1,1.86.77,3,3,0,0,1,.68,2v.6H169a2.47,2.47,0,0,0,.56,1.66,1.91,1.91,0,0,0,1.48.57,5,5,0,0,0,2-.42v.84a5.23,5.23,0,0,1-.94.32A5.59,5.59,0,0,1,171,44.15Zm-.26-5.68a1.57,1.57,0,0,0-1.2.49,2.24,2.24,0,0,0-.52,1.36h3.26a2.11,2.11,0,0,0-.4-1.37A1.41,1.41,0,0,0,170.74,38.47Z"/><path class="cls-1" d="M178.07,44V35.71h1V44Z"/><path class="cls-1" d="M185.45,44V40a1.64,1.64,0,0,0-.35-1.14,1.4,1.4,0,0,0-1.08-.38,1.8,1.8,0,0,0-1.44.53,2.72,2.72,0,0,0-.45,1.75V44h-.95V37.8H182l.15.85h.05a1.81,1.81,0,0,1,.81-.71,2.64,2.64,0,0,1,1.17-.26,2.35,2.35,0,0,1,1.7.55A2.3,2.3,0,0,1,186.4,40V44Z"/><path class="cls-1" d="M190.35,43.37a2.63,2.63,0,0,0,.49,0l.37-.07V44a1.77,1.77,0,0,1-.46.12,3.74,3.74,0,0,1-.53,0c-1.21,0-1.81-.64-1.81-1.91V38.53h-.9v-.46l.9-.39.39-1.33h.55V37.8h1.81v.73h-1.81V42.2a1.26,1.26,0,0,0,.27.87A.93.93,0,0,0,190.35,43.37Z"/><path class="cls-1" d="M195.09,44.15a2.86,2.86,0,0,1-2.18-.84,3.26,3.26,0,0,1-.8-2.34,3.59,3.59,0,0,1,.74-2.4,2.46,2.46,0,0,1,2-.89,2.37,2.37,0,0,1,1.86.77,3,3,0,0,1,.68,2v.6h-4.3a2.47,2.47,0,0,0,.56,1.66,1.92,1.92,0,0,0,1.48.57,5.09,5.09,0,0,0,2-.42v.84a5.31,5.31,0,0,1-1,.32A5.59,5.59,0,0,1,195.09,44.15Zm-.26-5.68a1.57,1.57,0,0,0-1.2.49,2.3,2.3,0,0,0-.52,1.36h3.26A2.05,2.05,0,0,0,196,39,1.38,1.38,0,0,0,194.83,38.47Z"/><path class="cls-1" d="M199.94,44H199V35.18h.95Z"/><path class="cls-1" d="M201.86,36.11a.66.66,0,0,1,.16-.48.57.57,0,0,1,.4-.15.56.56,0,0,1,.39.15.64.64,0,0,1,.17.48.61.61,0,0,1-.17.47.57.57,0,0,1-.39.16.58.58,0,0,1-.4-.16A.65.65,0,0,1,201.86,36.11Zm1,7.93h-.95V37.8h.95Z"/><path class="cls-1" d="M210,37.8v.59l-1.16.14a1.94,1.94,0,0,1,.41,1.25,1.85,1.85,0,0,1-.62,1.46,2.55,2.55,0,0,1-1.72.55,3,3,0,0,1-.53,0,.93.93,0,0,0-.6.8.41.41,0,0,0,.21.38,1.55,1.55,0,0,0,.72.12h1.11a2.49,2.49,0,0,1,1.55.43,1.48,1.48,0,0,1,.55,1.24,1.78,1.78,0,0,1-.83,1.58,4.48,4.48,0,0,1-2.43.55,3.32,3.32,0,0,1-1.88-.46,1.45,1.45,0,0,1-.67-1.29,1.41,1.41,0,0,1,.37-1,1.76,1.76,0,0,1,1-.56,1.09,1.09,0,0,1-.4-.34.88.88,0,0,1-.16-.53,1,1,0,0,1,.18-.6,1.91,1.91,0,0,1,.57-.49,1.7,1.7,0,0,1-.78-.68,1.93,1.93,0,0,1-.31-1.09,2,2,0,0,1,.62-1.58,2.51,2.51,0,0,1,1.74-.56,3,3,0,0,1,.88.12Zm-5,7.28a.85.85,0,0,0,.43.77,2.28,2.28,0,0,0,1.22.26,3.54,3.54,0,0,0,1.77-.35,1.1,1.1,0,0,0,.57-1,.76.76,0,0,0-.32-.7,2.39,2.39,0,0,0-1.17-.2h-1.14a1.51,1.51,0,0,0-1,.31A1.1,1.1,0,0,0,205,45.08Zm.52-5.29a1.25,1.25,0,0,0,.37,1,1.44,1.44,0,0,0,1,.34,1.2,1.2,0,0,0,1.38-1.34,1.24,1.24,0,0,0-1.4-1.41,1.39,1.39,0,0,0-1,.36A1.43,1.43,0,0,0,205.54,39.79Z"/><path class="cls-1" d="M213.92,44.15a2.89,2.89,0,0,1-2.19-.84,3.3,3.3,0,0,1-.8-2.34,3.64,3.64,0,0,1,.74-2.4,2.5,2.5,0,0,1,2-.89,2.38,2.38,0,0,1,1.86.77,3,3,0,0,1,.68,2v.6h-4.3a2.47,2.47,0,0,0,.56,1.66,1.91,1.91,0,0,0,1.48.57,5,5,0,0,0,2-.42v.84a5.06,5.06,0,0,1-.95.32A5.41,5.41,0,0,1,213.92,44.15Zm-2.17-7.31q.72-.78,1-1.14a4.89,4.89,0,0,0,.42-.6h.94a4.13,4.13,0,0,0,.44.62c.2.25.54.63,1,1.12V37h-.68a8.36,8.36,0,0,1-1.26-1.06A8.19,8.19,0,0,1,212.41,37h-.66Zm1.91,1.63a1.57,1.57,0,0,0-1.2.49,2.31,2.31,0,0,0-.53,1.36h3.27a2.11,2.11,0,0,0-.4-1.37A1.41,1.41,0,0,0,213.66,38.47Z"/><path class="cls-1" d="M222.09,44V40a1.64,1.64,0,0,0-.35-1.14,1.4,1.4,0,0,0-1.08-.38,1.8,1.8,0,0,0-1.44.53,2.72,2.72,0,0,0-.45,1.75V44h-1V37.8h.77l.15.85h0a1.81,1.81,0,0,1,.81-.71,2.64,2.64,0,0,1,1.17-.26,2.35,2.35,0,0,1,1.7.55A2.3,2.3,0,0,1,223,40V44Z"/><path class="cls-1" d="M227.47,44.15a2.7,2.7,0,0,1-2.1-.83,3.48,3.48,0,0,1-.74-2.36,3.54,3.54,0,0,1,.75-2.42,2.73,2.73,0,0,1,2.15-.86,3.94,3.94,0,0,1,.9.1,2.68,2.68,0,0,1,.71.23l-.29.8a5.63,5.63,0,0,0-.69-.21,3.28,3.28,0,0,0-.65-.08c-1.27,0-1.9.81-1.9,2.42a2.89,2.89,0,0,0,.46,1.77,1.62,1.62,0,0,0,1.38.61,4.28,4.28,0,0,0,1.6-.33v.83A3.39,3.39,0,0,1,227.47,44.15Z"/><path class="cls-1" d="M230.45,36.11a.62.62,0,0,1,.16-.48.55.55,0,0,1,.4-.15.56.56,0,0,1,.39.15.63.63,0,0,1,.16.48.61.61,0,0,1-.16.47.57.57,0,0,1-.39.16.56.56,0,0,1-.4-.16A.61.61,0,0,1,230.45,36.11Zm1,7.93h-.94V37.8h.94Z"/><path class="cls-1" d="M237.31,44l-.19-.89h0a2.62,2.62,0,0,1-.93.79,2.83,2.83,0,0,1-1.16.21,2.06,2.06,0,0,1-1.45-.48,1.71,1.71,0,0,1-.53-1.36c0-1.26,1-1.92,3-2l1.06,0v-.39a1.61,1.61,0,0,0-.31-1.09,1.34,1.34,0,0,0-1-.35A4.1,4.1,0,0,0,234,39l-.29-.72a4.08,4.08,0,0,1,1-.39,4.16,4.16,0,0,1,1.1-.15,2.39,2.39,0,0,1,1.66.5,2.1,2.1,0,0,1,.53,1.59V44Zm-2.13-.67a1.9,1.9,0,0,0,1.38-.48,1.8,1.8,0,0,0,.51-1.36V41l-.95,0a3.3,3.3,0,0,0-1.62.35,1.05,1.05,0,0,0-.5,1,1,1,0,0,0,.31.78A1.29,1.29,0,0,0,235.18,43.37Z"/><path class="cls-1" d="M30.69,20a15.73,15.73,0,0,1-8,8s-6,2-7.34,6C14,30,8,28,8,28a15.73,15.73,0,0,1-8-8c6,6,14.68,5.34,14.68,5.34V0L16,2.67V25.35S24.68,26,30.69,20Z"/><path class="cls-2" d="M16.68,4a61.11,61.11,0,0,1,0,20.68A20.71,20.71,0,0,1,30.69,14S22.68,12.68,16.68,4Z"/></g></g></svg>